<svg width="31" height="35" viewBox="0 0 31 35" fill="none" xmlns="http://www.w3.org/2000/svg">
<rect width="31" height="6" fill="black"/>
<rect y="9" width="31" height="5" fill="black"/>
<rect y="17" width="31" height="6" fill="black"/>
<path d="M10.16 33H9.24L9 29.89C8.9 28.67 8.84333 27.7333 8.83 27.08L7.34 32.22H6.45L4.88 27.07C4.88 27.9033 4.83667 28.8667 4.75 29.96L4.52 33H3.62L4.19 26.11H5.47L6.92 31.12L8.3 26.11H9.59L10.16 33ZM15.5132 26.11L15.4032 26.87H12.7332V29.12H15.0532V29.88H12.7332V32.24H15.5932V33H11.7832V26.11H15.5132ZM21.9648 33H20.6948L17.8948 27.15C17.9348 27.61 17.9648 28.0367 17.9848 28.43C18.0114 28.8167 18.0248 29.2867 18.0248 29.84V33H17.1348V26.11H18.3748L21.2048 31.97C21.1848 31.7967 21.1581 31.4933 21.1248 31.06C21.0914 30.6267 21.0748 30.23 21.0748 29.87V26.11H21.9648V33ZM28.6809 30.79C28.6809 31.25 28.5843 31.6567 28.3909 32.01C28.2043 32.3567 27.9276 32.63 27.5609 32.83C27.2009 33.0233 26.7676 33.12 26.2609 33.12C25.4943 33.12 24.9009 32.91 24.4809 32.49C24.0676 32.0633 23.8609 31.4967 23.8609 30.79V26.11H24.8109V30.72C24.8109 31.2533 24.9309 31.6533 25.1709 31.92C25.4109 32.1867 25.7743 32.32 26.2609 32.32C26.7543 32.32 27.1209 32.19 27.3609 31.93C27.6009 31.6633 27.7209 31.26 27.7209 30.72V26.11H28.6809V30.79Z" fill="black"/>
</svg>
